<?xml version="1.0" standalone="no"?>
<!DOCTYPE svg PUBLIC "-//W3C//DTD SVG 1.0//EN" "http://www.w3.org/TR/2001/REC-SVG-20010904/DTD/svg10.dtd">
<svg xmlns="http://www.w3.org/2000/svg"  xmlns:inkscape="http://www.inkscape.org/namespaces/inkscape" xmlns:xlink="http://www.w3.org/1999/xlink" xmlns:sodipodi="http://sodipodi.sourceforge.net/DTD/sodipodi-0.dtd" version="1.1" width="384" height="360">
<desc>CopyRight:SVG Design Editor;
configurationStart;Unit=smInches;Dpi=96;Division=4;Grid=True;Zoom=3;CanvasW=384;CanvasH=360;configurationEnd;</desc>
<g isVisble = "True" inkscape:label = "alavistalogo Default Layer" inkscape:groupmode = "layer" ><g id="group_3">
<g id="group_2">
<path style="fill:#FF7400;stroke:none; stroke-width:1" d="m0,0c6.61,1.16 12.79,2.77 19.09,5.08c0.82,0.3 1.65,0.59 2.49,0.9c1.73,0.62 3.45,1.25 5.18,1.88c2.6,0.95 5.21,1.89 7.81,2.82c8.01,2.89 15.94,5.87 23.78,9.21c4.46,1.87 8.99,3.51 13.53,5.17c9.41,3.49 18.75,7.14 28.06,10.88c0.63,0.25 1.25,0.5 1.9,0.76c5.64,2.26 11.27,4.53 16.9,6.81c2.39,0.96 4.78,1.93 7.16,2.89c2.19,0.88 4.37,1.77 6.56,2.65c0.97,0.39 1.93,0.78 2.93,1.18c1.27,0.51 1.27,0.51 2.56,1.04c2,0.84 2,0.84 4.05,0.73c0,0.66 0,1.32 0,2c0.82,0.26 0.82,0.26 1.65,0.53c5.58,1.82 11.01,3.87 16.41,6.16c0.82,0.35 1.64,0.69 2.49,1.05c7.32,3.14 14.43,6.63 21.51,10.27c1.92,0.98 3.85,1.93 5.78,2.88c14.8,7.26 29.5,14.75 42.82,24.52c2.14,1.77 2.14,1.77 4.34,1.58c1.71,1.63 3.38,3.29 5,5c2.97,-10.21 5.86,-20.45 8.67,-30.7c0.24,-0.86 0.47,-1.72 0.72,-2.61c1.19,-4.34 2.38,-8.69 3.56,-13.03c1.34,-4.89 2.69,-9.77 4.05,-14.66c0.33,-1.18 0.33,-1.18 0.66,-2.37c4.6,-16.42 4.6,-16.42 8.21,-23.31c0.51,-0.99 0.51,-0.99 1.03,-2.01c2.64,-4.91 5.27,-8.49 10.09,-11.31c0.92,-0.57 0.92,-0.57 1.86,-1.16c8.9,-4.99 18.76,-5.15 28.72,-5.14c1.18,0 2.36,-0.01 3.57,-0.01c2.48,-0.01 4.96,-0.01 7.44,0c3.76,0 7.53,-0.02 11.29,-0.05c2.42,0 4.84,0 7.27,0c1.66,-0.01 1.66,-0.01 3.36,-0.03c10.27,0.06 19.84,1.63 28.49,7.39c1,0.62 1,0.62 2.02,1.25c2.6,2.29 3.46,4.54 4.73,7.75c0.64,1.58 0.64,1.58 1.3,3.19c0.95,2.81 0.95,2.81 0.95,5.81c0.55,-0.02 1.11,-0.04 1.68,-0.06c22.1,-0.73 22.1,-0.73 31.7,6.38c6.86,7.02 8.98,15.27 8.94,24.94c0.02,0.71 0.03,1.41 0.05,2.14c0,5.13 0,5.13 -1.88,7.59c-0.49,0.34 -0.98,0.67 -1.48,1.02c-0.68,-0.27 -1.36,-0.53 -2.05,-0.8c-14.12,-5.36 -31.36,-8.55 -46.01,-3.11c-6.92,3.27 -12.43,8.07 -15.94,14.91c-4.47,13.56 0.32,30.46 2.88,43.94c8.96,48.09 9.17,86.66 -13.63,130.66c-1.48,2.87 -2.96,5.74 -4.43,8.61c-1.15,2.22 -2.29,4.45 -3.44,6.67c-0.54,1.05 -1.08,2.09 -1.63,3.17c-0.53,1.01 -1.05,2.03 -1.59,3.07c-0.46,0.89 -0.92,1.79 -1.4,2.71c-1.75,3.18 -1.75,3.18 -3.2,5.28c-4.36,6.5 -5.41,11.39 -5.32,19.13c-0.01,1.07 -0.02,2.15 -0.03,3.26c-0.03,3.52 -0.01,7.03 0,10.55c-0.01,2.45 -0.03,4.9 -0.04,7.36c-0.04,6.43 -0.04,12.86 -0.03,19.28c0,6.57 -0.03,13.14 -0.06,19.71c-0.05,12.87 -0.07,25.74 -0.06,38.61c-4.11,0.02 -8.22,0.04 -12.34,0.05c-1.4,0.01 -2.8,0.01 -4.2,0.02c-2.01,0.01 -4.02,0.02 -6.02,0.02c-1.21,0.01 -2.42,0.01 -3.67,0.02c-2.78,-0.11 -2.78,-0.11 -3.78,-1.11c-0.13,-2.8 -0.19,-5.57 -0.21,-8.38c-0.01,-0.88 -0.02,-1.76 -0.03,-2.66c-0.03,-2.92 -0.06,-5.83 -0.08,-8.75c-0.02,-2.02 -0.04,-4.03 -0.06,-6.05c-0.06,-5.32 -0.1,-10.64 -0.15,-15.95c-0.05,-5.42 -0.11,-10.84 -0.16,-16.27c-0.11,-10.65 -0.21,-21.3 -0.31,-31.94c-0.66,0.33 -1.32,0.66 -2,1c0,-0.66 0,-1.32 0,-2c-3.3,0.33 -6.6,0.66 -10,1c0,30.03 0,60.06 0,91c-26.04,0 -41.58,-0.91 -62,-15c0.9,-6.25 2.29,-12.27 4.12,-18.31c2.5,-8.22 4.74,-16.51 6.94,-24.81c0.33,-1.24 0.66,-2.48 0.99,-3.75c0.65,-2.45 1.3,-4.91 1.94,-7.36c0.71,-2.65 1.43,-5.29 2.17,-7.93c0.19,-0.68 0.38,-1.36 0.58,-2.07c0.53,-1.91 1.07,-3.81 1.61,-5.72c0.91,-3.07 0.91,-3.07 -0.36,-6.05c-0.99,0 -1.98,0 -3,0c-1.67,0 -3.33,0 -5,0c-1,2.27 -2,4.54 -3,6.81c-0.94,2.12 -1.87,4.25 -2.81,6.37c-2.9,6.57 -5.77,13.15 -8.62,19.74c-1.62,3.74 -3.24,7.48 -4.86,11.21c-0.81,1.87 -1.62,3.74 -2.42,5.62c-1.14,2.66 -2.29,5.31 -3.45,7.97c-0.34,0.81 -0.69,1.61 -1.04,2.45c-0.32,0.74 -0.65,1.48 -0.98,2.24c-0.28,0.65 -0.56,1.3 -0.85,1.97c-0.97,1.63 -0.97,1.63 -3.97,3.63c0,-0.66 0,-1.32 0,-2c-0.72,-0.26 -1.43,-0.53 -2.17,-0.8c-2.93,-1.24 -5.46,-2.71 -8.15,-4.4c-1.01,-0.63 -2.01,-1.26 -3.05,-1.91c-1.05,-0.67 -2.11,-1.33 -3.2,-2.02c-1.07,-0.67 -2.15,-1.35 -3.25,-2.05c-7.14,-4.5 -14.23,-9.05 -21.18,-13.83c1.27,-3.41 2.72,-6.31 4.75,-9.32c0.55,-0.82 1.1,-1.64 1.67,-2.49c0.59,-0.88 1.19,-1.75 1.8,-2.66c0.62,-0.92 1.24,-1.85 1.88,-2.8c1.96,-2.92 3.93,-5.83 5.9,-8.74c1.22,-1.81 2.44,-3.61 3.66,-5.42c4.24,-6.29 8.49,-12.57 12.74,-18.85c8.68,-12.82 17.21,-25.72 25.6,-38.73c-0.33,-0.33 -0.66,-0.66 -1,-1c-0.66,0 -1.32,0 -2,0c0.33,-1.65 0.66,-3.3 1,-5c-5.38,1.46 -10.76,2.92 -16.11,4.46c-25.34,7.23 -53.96,14.95 -78.76,2.22c-11.1,-6.42 -19.32,-14.79 -23.12,-27.44c-0.36,-1.41 -0.7,-2.83 -1,-4.25c2.97,-1.98 3.8,-2.26 7.16,-2.51c4.56,-0.42 8.89,-1.28 13.34,-2.35c1.17,-0.27 1.17,-0.27 2.37,-0.55c2.52,-0.59 5.05,-1.18 7.57,-1.78c1.75,-0.41 3.49,-0.82 5.24,-1.22c3.48,-0.81 6.96,-1.63 10.44,-2.45c6.6,-1.55 13.21,-3.06 19.82,-4.58c6.37,-1.46 12.73,-2.95 19.06,-4.56c-6.49,0.45 -12.95,0.96 -19.41,1.75c-58.75,7.23 -58.75,7.23 -81.97,-10.23c-10.53,-8.3 -20.1,-19.32 -21.97,-33.12c-0.25,-2.46 -0.47,-4.93 -0.65,-7.4c5.27,-0.03 10.54,-0.05 15.81,-0.06c0.83,0 1.66,0 2.51,-0.01c12.11,-0.02 24.22,0.1 36.33,0.33c0.67,0.01 1.34,0.02 2.02,0.04c6.06,0.11 12.12,0.22 18.17,0.35c3.81,0.08 7.61,0.16 11.42,0.23c1.16,0.03 2.31,0.05 3.5,0.08c1.06,0.02 2.11,0.04 3.2,0.06c0.93,0.02 1.85,0.04 2.81,0.06c2.26,0.07 2.26,0.07 4.22,-1.08c0,0.66 0,1.32 0,2c3.63,-0.33 7.26,-0.66 11,-1c-1.27,-0.18 -2.53,-0.36 -3.84,-0.55c-105.3,-15.08 -105.3,-15.08 -125.16,-41.45c-7.21,-10.47 -13.17,-22.85 -13.04,-35.77c0.01,-1.19 0.01,-1.19 0.02,-2.41c0.01,-0.6 0.02,-1.2 0.02,-1.82c9.63,1.8 19.2,3.78 28.72,6.05c0.76,0.18 1.51,0.36 2.29,0.55c3.82,0.91 7.65,1.83 11.47,2.76c1.43,0.34 2.86,0.69 4.3,1.03c1.27,0.31 2.54,0.62 3.85,0.94c2.92,0.58 5.41,0.82 8.37,0.67c0,0.66 0,1.32 0,2c0.59,0.05 1.19,0.09 1.8,0.14c6.5,0.58 12.78,1.66 19.15,3c1.54,0.32 1.54,0.32 3.1,0.64c3.25,0.67 6.5,1.35 9.75,2.03c4.26,0.88 8.51,1.76 12.77,2.64c1.04,0.21 2.07,0.43 3.14,0.65c10.07,2.08 20.17,4.01 30.28,5.89c-15.07,-4.57 -30.15,-9.08 -45.3,-13.38c-5.86,-1.66 -11.71,-3.34 -17.57,-5.01c-1.41,-0.4 -2.82,-0.81 -4.23,-1.21c-31.95,-9.12 -31.95,-9.12 -46.9,-16.4c-0.7,-0.34 -1.41,-0.68 -2.13,-1.03c-14.12,-6.98 -25.65,-16.37 -33.87,-29.97c-0.43,-0.69 -0.86,-1.39 -1.3,-2.11c-2.7,-4.51 -2.7,-4.51 -2.7,-6.89c-0.66,-0.33 -1.32,-0.66 -2,-1c-0.8,-2.55 -1.47,-5.03 -2.06,-7.62c-0.18,-0.76 -0.35,-1.51 -0.53,-2.29c-1.62,-7.34 -2.18,-14.58 -2.4,-22.09zm336.5,29.5c-1.01,0.05 -2.03,0.1 -3.07,0.14c-2.48,0.12 -4.95,0.24 -7.43,0.36c5.48,5.95 9.72,6.62 17.5,7.31c4.37,-0.39 8.61,-1.19 12.5,-3.31c1.29,-2.02 1.29,-2.02 2,-4c-5.7,-2.85 -15.25,-0.8 -21.5,-0.5zm-171.5,80.5c4,1 4,1 4,1l-4,-1zm85,54c0,9.24 0,18.48 0,28c4.92,0.03 4.92,0.03 9.94,0.06c1.04,0.01 2.07,0.02 3.14,0.03c0.81,0 1.62,0 2.45,0.01c0.83,0.01 1.67,0.01 2.52,0.02c1.95,0.1 1.95,0.1 2.95,-1.11c0.09,-1.93 0.11,-3.86 0.1,-5.79c0,-1.75 0,-1.75 -0.01,-3.54c-0.01,-1.23 -0.02,-2.46 -0.03,-3.73c0,-1.24 -0.01,-2.47 -0.01,-3.74c-0.01,-3.06 -0.03,-6.13 -0.05,-9.19c-1.65,-0.33 -3.3,-0.66 -5,-1c-0.33,0.66 -0.66,1.32 -1,2c-1.56,-0.52 -3.12,-1.04 -4.69,-1.56c-3.38,-0.64 -6.87,-0.44 -10.31,-0.44zm53,5c-0.43,2.31 -0.43,2.31 -0.33,4.97c0.01,0.98 0.01,1.96 0.02,2.97c0.02,1.03 0.04,2.06 0.06,3.12c0.01,1.03 0.01,2.06 0.02,3.13c-0.39,4.75 -0.39,4.75 1.23,8.81c4.2,0.26 8.42,0.19 12.62,0.19c1.77,0.02 1.77,0.02 3.57,0.04c5.96,0.01 11.24,-0.01 16.81,-2.22c3.64,-3.64 3.93,-6.93 4.25,-11.94c-0.04,-3.76 -0.88,-6.05 -3.25,-9.06c-2.71,-1.36 -4.97,-1.22 -8,-1.32c-1.2,-0.04 -2.4,-0.08 -3.63,-0.13c-1.26,-0.04 -2.51,-0.08 -3.81,-0.12c-1.25,-0.04 -2.51,-0.09 -3.8,-0.13c-8.3,-0.82 -8.3,-0.82 -15.76,1.69zm-122,39c4,1 4,1 4,1l-4,-1zm69,13c0,7.26 0,14.52 0,22c7.67,0.05 15.34,0.08 23,0.1c3.56,0.01 7.12,0.02 10.68,0.05c4.1,0.03 8.21,0.04 12.31,0.04c1.27,0.01 2.53,0.02 3.84,0.03c9.76,0 17.95,-0.16 25.3,-7.14c3.05,-3.42 5.51,-7.16 7.86,-11.09c-0.99,-0.33 -1.98,-0.66 -3,-1c0,-0.99 0,-1.98 0,-3c-26.4,0 -52.8,0 -80,0z" transform = "matrix(0.7820317,0,0,0.7820335,6.177104,6.142202)" vector-effect="non-scaling-stroke" pen = "0.4905755,0.4905765" />
</g>
<path style="fill:#FF7400;stroke:#FF7400; stroke-width:1" d="m761,493l331,11l2,92l-29,32l-154,12l-161,-15l-13,-119l26,-19l4,7l5,-1l-11,0z" transform = "matrix(0.2769157,0,0,0.5757008,-21.85134,-158.5593)" vector-effect="non-scaling-stroke" pen = "0.9692106,2.014966" />
</g>
<path style="fill:none;stroke:Black; stroke-width:1" d="m443,280l0,0l0,0l0,0l0,0" transform = "matrix(0.5,0,0,0.5,0,0)" vector-effect="non-scaling-stroke" pen = "1,1" />
</g>
</svg>
